<?xml version="1.0" encoding="utf-8"?>
<svg id="master-artboard" viewBox="0 0 1400 980" version="1.1" xmlns="http://www.w3.org/2000/svg" x="0px" y="0px" style="enable-background:new 0 0 1400 980;" width="1400px" height="980px"><rect id="ee-background" x="0" y="0" width="1400" height="980" style="fill: white; fill-opacity: 1; pointer-events: none;"/>


<path d="M 288.26348876953125 283.95208740234375 L 288.26348876953125 620.261962890625 L 476.91357421875 620.261962890625 L 476.91357421875 566.248779296875 L 344.2922058105469 566.248779296875 L 344.2922058105469 283.5500793457031" style="fill: rgb(0, 0, 0); fill-opacity: 1; stroke: rgb(0, 0, 0); stroke-opacity: 1; stroke-width: 10; paint-order: stroke;" transform="matrix(1, 0, 0, 1, -3.2335329710627434, -1.0778443236875717)"/><path d="M 288.26348876953125 283.95208740234375 L 288.26348876953125 620.261962890625 L 476.91357421875 620.261962890625 L 476.91357421875 566.248779296875 L 344.2922058105469 566.248779296875 L 344.2922058105469 283.5500793457031" style="fill: rgb(0, 0, 0); fill-opacity: 1; stroke: rgb(0, 0, 0); stroke-opacity: 1; stroke-width: 10; paint-order: stroke;" transform="matrix(1, 0, 0, 1, 210.70488152604332, 0.18979540000816542)"/><path d="M 219.28143310546875 716.1676635742188 L 840.1197509765625 714.011962890625 L 840.1197509765625 757.125732421875 L 220.29930114746094 757.125732421875" style="fill: rgb(205, 205, 205); fill-opacity: 1; stroke: rgb(205, 205, 205); stroke-opacity: 1; stroke-width: 10; paint-order: stroke;"/><g transform="matrix(5.742290496826173, 0, 0, 2.1930716037750244, -61.21472930908203, -655.4123165529061)"><g id="g-1" transform="matrix(1, 0, 0, 1, 0, 0)">
	<g id="g-2">
		<path class="st0" d="M103,336.5L53,424h100L103,336.5" style="fill: rgb(205, 205, 205);"/>
	</g>
</g></g><path d="M 716.1676635742188 286.1077880859375 L 773.2933959960938 286.1077880859375 L 773.2933959960938 691.3507080078125 L 276.21209716796875 690.2728881835938 L 276.21209716796875 650.3079833984375 L 717.947998046875 650.3079833984375" style="fill: rgb(205, 205, 205); fill-opacity: 1; stroke: rgb(205, 205, 205); stroke-opacity: 1; stroke-width: 10; paint-order: fill;" transform="matrix(1, 0, 0, 1, 5.684341886080802e-14, 1.4210854715202004e-14)"/><path d="M 206.34730529785156 566.3472900390625" style="fill: rgb(205, 205, 205); fill-opacity: 1; stroke: rgb(205, 205, 205); stroke-opacity: 1; stroke-width: 10; paint-order: stroke;"/><path style="fill: rgb(205, 205, 205); fill-opacity: 1; stroke: rgb(205, 205, 205); stroke-opacity: 1; stroke-width: 10; paint-order: stroke;"/></svg>