<?xml version="1.0" encoding="utf-8"?>
<svg id="master-artboard" viewBox="0 0 700 700" version="1.1" xmlns="http://www.w3.org/2000/svg" x="0px" y="0px" style="enable-background:new 0 0 1400 980;" width="700px" height="700px"><rect id="ee-background" x="0" y="0" width="700" height="700" style="fill: white; fill-opacity: 0; pointer-events: none;"/>


<path d="M 288.26348876953125 283.95208740234375 L 288.26348876953125 620.261962890625 L 476.91357421875 620.261962890625 L 476.91357421875 566.248779296875 L 344.2922058105469 566.248779296875 L 344.2922058105469 283.5500793457031" style="fill: rgb(0, 0, 0); fill-opacity: 1; stroke: rgb(0, 0, 0); stroke-opacity: 1; stroke-width: 10; paint-order: stroke;" transform="matrix(1, 0, 0, 1, -182.15569812140407, -74.37125515153876)"/><path d="M 288.26348876953125 283.95208740234375 L 288.26348876953125 620.261962890625 L 476.91357421875 620.261962890625 L 476.91357421875 566.248779296875 L 344.2922058105469 566.248779296875 L 344.2922058105469 283.5500793457031" style="fill: rgb(0, 0, 0); fill-opacity: 1; stroke: rgb(0, 0, 0); stroke-opacity: 1; stroke-width: 10; paint-order: stroke;" transform="matrix(1, 0, 0, 1, 31.782722114706644, -73.10361599138251)"/><path d="M 219.28143310546875 716.1676635742188 L 840.1197509765625 714.011962890625 L 840.1197509765625 757.125732421875 L 220.29930114746094 757.125732421875" style="fill: rgb(158, 155, 160); fill-opacity: 1; stroke: rgb(205, 205, 205); stroke-opacity: 0; stroke-width: 0; paint-order: stroke;" transform="matrix(0.9499998092651368, 0, 0, 1.274999737739563, -152.4369812011719, -277.19136928728096)"/><path d="M 716.1676635742188 286.1077880859375 L 773.2933959960938 286.1077880859375 L 773.2933959960938 691.3507080078125 L 276.21209716796875 690.2728881835938 L 276.21209716796875 647.074462890625 L 717.947998046875 644.9187622070312" style="fill: rgb(158, 155, 160); fill-opacity: 1; stroke: rgb(205, 205, 205); stroke-opacity: 0; stroke-width: 0; paint-order: fill;" transform="matrix(1, 0, 0, 1, -178.92216235480245, -73.29341243913642)"/><path d="M 206.34730529785156 566.3472900390625" style="fill: rgb(205, 205, 205); fill-opacity: 1; stroke: rgb(205, 205, 205); stroke-opacity: 1; stroke-width: 10; paint-order: stroke;"/><path style="fill: rgb(205, 205, 205); fill-opacity: 1; stroke: rgb(205, 205, 205); stroke-opacity: 1; stroke-width: 10; paint-order: stroke;"/><g transform="matrix(6.827336311340333, 0, 0, 2.399880886077881, -3080.8421605237477, -817.6712887208748)"><g id="g-3" transform="matrix(1, 0, 0, 1, 0, 0)">
	<path class="st0" d="M509.4,349.5c-4.1-7.2-10.8-7.2-14.9,0L459.4,411c-4.1,7.2-0.7,13,7.6,13h70c8.2,0,11.7-5.9,7.6-13&#10;&#9;&#9;L509.4,349.5z" style="fill: rgb(158, 155, 160); stroke: rgb(205, 205, 205); stroke-width: 0; stroke-opacity: 0;"/>
</g></g><g transform="matrix(1.2484993934631348, 0, 0, 1.2484993934631348, 219.6757075182444, -534.615441552906)"><g id="g-4" transform="matrix(1, 0, 0, 1, 0, 0)">
	<g id="g-5">
		<path class="st0" d="M143.7,542.8c1.1-4.1,2.8-8.1,4.9-11.8l3.3-6.2c1.5-3.7,1.5-7.9,0-11.7l-3.3-6.2c-2.1-3.7-3.8-7.7-4.9-11.8&#10;&#9;&#9;&#9;l-2-6.7c-1.6-3.7-4.5-6.7-8.3-8.3l-6.7-2c-4.1-1.1-8.1-2.8-11.8-4.9l-6.2-3.3c-3.7-1.5-7.9-1.5-11.7,0l-6.2,3.3&#10;&#9;&#9;&#9;c-3.7,2.1-7.6,3.8-11.8,4.9l-6.7,2c-3.7,1.6-6.7,4.5-8.3,8.3l-2,6.7c-1.1,4.1-2.8,8.1-4.9,11.8l-3.3,6.2c-1.5,3.7-1.5,7.9,0,11.7&#10;&#9;&#9;&#9;l3.3,6.2c2.1,3.7,3.8,7.6,4.9,11.8l2,6.7c1.6,3.7,4.5,6.7,8.3,8.3l6.7,2c4.1,1.1,8.1,2.8,11.8,4.9l6.2,3.3c3.7,1.5,7.9,1.5,11.7,0&#10;&#9;&#9;&#9;l6.2-3.3c3.7-2.1,7.7-3.8,11.8-4.9l6.7-2c3.7-1.6,6.7-4.5,8.3-8.3L143.7,542.8z" style="fill: rgb(211, 208, 214);"/>
	</g>
</g></g></svg>